{
  "accessors": [
    {
      "name": "Pig_Mesh_1_0_positions",
      "componentType": 5126,
      "count": 1552,
      "min": [
        -1.1633820533752441,
        0,
        -3.7795910835266113
      ],
      "max": [
        1.1633820533752441,
        4.101134777069092,
        3.7795910835266113
      ],
      "type": "VEC3",
      "bufferView": 0,
      "byteOffset": 0
    },
    {
      "name": "Pig_Mesh_1_0_normals",
      "componentType": 5126,
      "count": 1552,
      "min": [
        -1,
        -1,
        -0.9843183159828186
      ],
      "max": [
        1,
        0.9758808016777039,
        0.9999564290046692
      ],
      "type": "VEC3",
      "bufferView": 1,
      "byteOffset": 0
    },
    {
      "name": "Pig_Mesh_1_0_texcoords",
      "componentType": 5126,
      "count": 1552,
      "min": [
        0.008310000412166119,
        0.005830999929457903
      ],
      "max": [
        0.9916899800300598,
        0.9941319823265076
      ],
      "type": "VEC2",
      "bufferView": 2,
      "byteOffset": 0
    },
    {
      "name": "Pig_Mesh_1_0_indices",
      "componentType": 5123,
      "count": 2268,
      "min": [
        0
      ],
      "max": [
        1551
      ],
      "type": "SCALAR",
      "bufferView": 3,
      "byteOffset": 0
    }
  ],
  "asset": {
    "generator": "obj2gltf",
    "version": "2.0"
  },
  "buffers": [
    {
      "uri": "Pig_data.bin",
      "byteLength": 54200
    }
  ],
  "bufferViews": [
    {
      "name": "bufferView_0",
      "buffer": 0,
      "byteLength": 18624,
      "byteOffset": 0,
      "byteStride": 12,
      "target": 34962
    },
    {
      "name": "bufferView_1",
      "buffer": 0,
      "byteLength": 18624,
      "byteOffset": 18624,
      "byteStride": 12,
      "target": 34962
    },
    {
      "name": "bufferView_2",
      "buffer": 0,
      "byteLength": 12416,
      "byteOffset": 37248,
      "byteStride": 8,
      "target": 34962
    },
    {
      "name": "bufferView_3",
      "buffer": 0,
      "byteLength": 4536,
      "byteOffset": 49664,
      "target": 34963
    }
  ],
  "images": [
    {
      "name": "Pig_BaseColor",
      "uri": "Pig_img0.png"
    }
  ],
  "materials": [
    {
      "name": "Pig_Mat",
      "pbrMetallicRoughness": {
        "baseColorTexture": {
          "index": 0
        },
        "baseColorFactor": [
          1,
          1,
          1,
          1
        ],
        "metallicFactor": 0,
        "roughnessFactor": 1
      },
      "emissiveFactor": [
        0,
        0,
        0
      ],
      "alphaMode": "OPAQUE",
      "doubleSided": false
    }
  ],
  "meshes": [
    {
      "name": "Pig_Mesh_1",
      "primitives": [
        {
          "attributes": {
            "POSITION": 0,
            "NORMAL": 1,
            "TEXCOORD_0": 2
          },
          "indices": 3,
          "material": 0,
          "mode": 4
        }
      ]
    }
  ],
  "nodes": [
    {
      "name": "Pig_Mesh",
      "mesh": 0
    }
  ],
  "samplers": [
    {
      "magFilter": 9729,
      "minFilter": 9986,
      "wrapS": 10497,
      "wrapT": 10497
    }
  ],
  "scene": 0,
  "scenes": [
    {
      "nodes": [
        0
      ]
    }
  ],
  "textures": [
    {
      "name": "Pig_BaseColor",
      "sampler": 0,
      "source": 0
    }
  ]
}